<svg xmlns="http://www.w3.org/2000/svg" viewBox="0 0 24 24" fill="none">
  <rect width="20" height="20" x="2" y="2" rx="2" fill="#FF7A59"/>
  <path d="M16.5 8C15.1193 8 14 9.11929 14 10.5V12H10V10.5C10 9.11929 8.88071 8 7.5 8C6.11929 8 5 9.11929 5 10.5C5 11.8807 6.11929 13 7.5 13C8.15311 13 8.75159 12.7478 9.2 12.3333V14C7.89543 14 7 14.8954 7 16C7 17.1046 7.89543 18 9 18H15C16.1046 18 17 17.1046 17 16C17 14.8954 16.1046 14 15 14V12.3333C15.4484 12.7478 16.0469 13 16.7 13C18.0807 13 19.2 11.8807 19.2 10.5C19.2 9.11929 17.8807 8 16.5 8Z" fill="white"/>
</svg> 