<svg xmlns="http://www.w3.org/2000/svg" viewBox="0 0 24 24" fill="none">
  <rect width="20" height="20" x="2" y="2" rx="2" fill="#0A66C2"/>
  <path d="M8 10H6V18H8V10Z" fill="white"/>
  <path d="M7 9C7.55228 9 8 8.55228 8 8C8 7.44772 7.55228 7 7 7C6.44772 7 6 7.44772 6 8C6 8.55228 6.44772 9 7 9Z" fill="white"/>
  <path d="M18 14C18 12.3431 16.6569 11 15 11C14.2316 11 13.5308 11.2889 13 11.7639V10H11V18H13V14.5C13 13.6716 13.6716 13 14.5 13C15.3284 13 16 13.6716 16 14.5V18H18V14Z" fill="white"/>
</svg> 