<svg xmlns="http://www.w3.org/2000/svg" viewBox="0 0 24 24" fill="none">
  <path d="M12 2C6.48 2 2 6.48 2 12C2 17.52 6.48 22 12 22C17.52 22 22 17.52 22 12C22 6.48 17.52 2 12 2Z" fill="#00A1E0"/>
  <path d="M15.5 8C14.1193 8 13 9.11929 13 10.5C13 10.5914 13.0117 10.6809 13.0342 10.7676C12.3635 10.2794 11.5493 10 10.6667 10C8.64162 10 7 11.6416 7 13.6667C7 15.6917 8.64162 17.3333 10.6667 17.3333C11.5493 17.3333 12.3635 17.0539 13.0342 16.5657C13.0117 16.6524 13 16.7419 13 16.8333C13 18.214 14.1193 19.3333 15.5 19.3333C16.8807 19.3333 18 18.214 18 16.8333V10.5C18 9.11929 16.8807 8 15.5 8Z" fill="white"/>
</svg> 